<svg width="664" height="665" viewBox="0 0 664 665" fill="none" xmlns="http://www.w3.org/2000/svg">
<g clip-path="url(#clip0_762_71)">
<path opacity="0.2" d="M663.459 504.085V333.877H663.999V331.998H663.459V161.791C663.449 120.049 647.205 79.9474 618.163 49.9658V46.8775H663.459V44.9858H619.475L661.709 2.52078L660.422 1.23396L618.201 43.699V2.1476H616.323V44.9858H613.131C583.581 16.7383 544.283 0.962883 503.404 0.937988H160.042C119.18 0.976116 79.9032 16.7505 50.3661 44.9858H47.162V2.1476H45.2961V43.6604L3.0755 1.19535L1.78868 2.48217L44.0092 44.9472H2.67659V46.826H45.2961V49.9658C16.25 79.9451 0.00579511 120.048 0 161.791V504.085C0.00579511 545.827 16.25 585.93 45.2961 615.909V619.049H2.67659V620.928H43.9706L1.75008 663.393L3.0369 664.68L45.2575 622.215V663.728H47.1234V620.889H50.3275C79.8742 649.134 119.167 664.909 160.042 664.937H503.404C544.27 664.902 583.552 649.128 613.093 620.889H616.284V663.728H618.163V622.215L660.383 664.68L661.67 663.393L619.437 620.928H663.999V619.049H618.163V615.909C647.198 585.923 663.441 545.825 663.459 504.085ZM661.58 504.085C661.577 544.662 646.041 583.698 618.163 613.181V451.904H660.911V450.038H618.163V333.877H661.58V504.085ZM449.525 450.038L448.238 448.751C450.374 446.581 452.446 444.35 454.453 442.06V450.038H449.525ZM454.453 451.917V454.993L451.391 451.917H454.453ZM210.073 450.038V443.282C211.746 445.148 213.471 446.963 215.221 448.751L213.934 450.038H210.073ZM212.068 451.917L210.073 453.899V451.904L212.068 451.917ZM213.934 215.837L215.221 217.124C213.471 218.912 211.746 220.74 210.073 222.593V215.837H213.934ZM210.073 213.958V211.977L212.068 213.971L210.073 213.958ZM454.453 215.837V223.815C452.446 221.525 450.374 219.294 448.238 217.124L449.525 215.837H454.453ZM451.391 213.958L454.453 210.883V213.958H451.391ZM454.453 331.985H450.052C449.857 301.112 437.666 271.524 416.055 249.474L446.938 218.462C449.512 221.096 452.026 223.828 454.479 226.659L454.453 331.985ZM456.319 228.885C480.321 257.894 493.511 294.334 493.637 331.985H456.319V228.885ZM414.729 250.761C436.001 272.447 448 301.558 448.187 331.934H333.981L414.729 250.761ZM332.669 330.544V215.837C362.941 216.048 391.925 228.115 413.404 249.449L332.669 330.544ZM330.79 330.544L250.042 249.359C271.545 228.064 300.528 216.032 330.79 215.837V330.544ZM329.503 331.831H215.272C215.466 301.456 227.464 272.348 248.729 250.658L329.503 331.831ZM329.503 333.71L248.755 414.882C227.49 393.193 215.492 364.084 215.298 333.71H329.503ZM330.79 334.997V450.038C300.512 449.826 271.523 437.754 250.042 416.414L330.79 334.997ZM332.669 334.997L413.404 416.169C391.969 437.601 362.979 449.763 332.669 450.038V334.997ZM333.956 333.71H448.148C447.961 364.086 435.962 393.197 414.691 414.882L333.956 333.71ZM445.587 217.124L414.704 248.149C397.752 231.332 376.09 220.063 352.589 215.837H444.275L445.587 217.124ZM332.669 213.958V170.116C373.451 170.316 412.636 185.99 442.306 213.971L332.669 213.958ZM330.79 213.958H221.153C250.817 185.969 290.006 170.294 330.79 170.103V213.958ZM310.857 215.837C287.349 220.064 265.678 231.332 248.717 248.149L217.833 217.124L219.12 215.837H310.857ZM216.546 218.411L247.43 249.423C225.809 271.466 213.615 301.058 213.432 331.934H210.099V225.437C212.171 223.056 214.32 220.727 216.546 218.475V218.411ZM208.208 331.934H169.77C169.914 293.706 183.523 256.751 208.208 227.56V331.934ZM208.208 333.813V438.187C183.523 408.996 169.914 372.041 169.77 333.813H208.208ZM210.073 333.813H213.406C213.587 364.685 225.781 394.274 247.404 416.311L216.52 447.336C214.294 445.084 212.145 442.755 210.086 440.374L210.073 333.813ZM217.872 448.751L248.755 417.726C265.707 434.537 287.362 445.804 310.857 450.038H219.184L217.872 448.751ZM330.79 451.917V495.772C290.006 495.581 250.817 479.906 221.153 451.917H330.79ZM332.669 451.917H442.306C412.636 479.898 373.451 495.572 332.669 495.772V451.917ZM352.589 450.038C376.099 445.817 397.771 434.548 414.729 417.726L445.613 448.751L444.326 450.038H352.589ZM446.913 447.465L416.029 416.439C437.643 394.397 449.835 364.812 450.027 333.941H454.428V439.268C452.026 442.047 449.521 444.779 446.913 447.465ZM456.319 333.941H493.637C493.511 371.592 480.321 408.032 456.319 437.041V333.941ZM495.554 332.063C495.411 293.201 481.511 255.645 456.319 226.054V215.837H555.276C573.903 251.725 583.668 291.551 583.753 331.985L495.554 332.063ZM456.319 214.035V209.068L510.597 154.52C527.98 172.126 542.698 192.176 554.285 214.035H456.319ZM456.319 206.417V112.66C475.677 123.752 493.482 137.355 509.272 153.117L456.319 206.417ZM454.453 208.296L448.753 214.035H445.034C414.881 184.857 374.627 168.446 332.669 168.225V79.5884C375.332 79.6821 417.26 90.7046 454.453 111.605V208.296ZM330.79 168.225C288.842 168.423 248.589 184.806 218.425 213.958H214.706L210.073 209.3V110.987C247.008 90.475 288.542 79.6676 330.79 79.5756V168.225ZM208.208 207.434L154.161 153.117C170.252 137.067 188.431 123.255 208.208 112.055V207.434ZM208.208 210.098V213.958H109.122C120.705 192.096 135.424 172.045 152.81 154.443L208.208 210.098ZM208.208 215.85V224.729C182.35 254.5 168.043 292.566 167.891 331.998H79.7056C79.789 291.56 89.5537 251.729 108.183 215.837L208.208 215.85ZM167.891 333.877C168.043 373.309 182.35 411.376 208.208 441.146V450.038H108.183C89.5557 414.15 79.7911 374.324 79.7056 333.89L167.891 333.877ZM208.208 451.904V455.765L152.874 511.394C135.488 493.791 120.77 473.741 109.187 451.878L208.208 451.904ZM208.208 458.441V553.82C188.431 542.62 170.252 528.808 154.161 512.758L208.208 458.441ZM210.073 456.562L214.706 451.904H218.425C248.587 481.061 288.84 497.449 330.79 497.651V586.313C288.542 586.21 247.009 575.398 210.073 554.888V456.562ZM332.669 497.651C374.617 497.45 414.869 481.067 445.034 451.917H448.753L454.453 457.656V554.271C417.259 575.169 375.332 586.195 332.669 586.3V497.651ZM456.319 459.535L509.272 512.771C493.476 528.526 475.672 542.129 456.319 553.228V459.535ZM456.319 456.884V451.917H554.285C542.698 473.777 527.98 493.827 510.597 511.432L456.319 456.884ZM456.319 450.038V439.898C481.511 410.307 495.411 372.752 495.554 333.89H583.753C583.668 374.324 573.903 414.15 555.276 450.038H456.319ZM585.619 333.89H616.284V450.038H557.386C575.862 414.1 585.539 374.287 585.619 333.877V333.89ZM585.619 332.011C585.541 291.597 575.864 251.78 557.386 215.837H616.284V331.985L585.619 332.011ZM556.395 213.984C544.651 191.619 529.664 171.113 511.923 153.13L615.1 49.4511L615.19 49.5283C615.576 49.9272 615.962 50.3519 616.348 50.8151V213.971L556.395 213.984ZM613.685 48.1514L510.597 151.792C494.435 135.66 476.179 121.771 456.319 110.498V46.8646H612.346L613.685 48.1514ZM454.453 109.456C417.202 88.7297 375.298 77.8021 332.669 77.6968V46.8131H454.453V109.456ZM332.669 44.9858V2.81674H454.453V44.9858H332.669ZM330.79 44.9858H210.073V2.81674H330.79V44.9858ZM330.79 46.8646V77.7483C288.576 77.8471 247.064 88.5603 210.073 108.902V46.8646H330.79ZM208.208 109.919C187.938 121.29 169.32 135.383 152.874 151.805L49.7871 48.1643L51.0739 46.8775H208.208V109.919ZM48.333 49.5283L48.4102 49.4511L151.536 153.117C133.787 171.096 118.796 191.603 107.051 213.971H47.162V50.7637C47.6124 50.3519 47.9341 49.9272 48.333 49.5283ZM106.073 215.837C87.5987 251.772 77.9223 291.58 77.8398 331.985H47.162V215.837H106.073ZM77.8398 333.864C77.9183 374.278 87.5948 414.096 106.073 450.038H47.162V333.877L77.8398 333.864ZM107.051 451.891C118.796 474.259 133.787 494.766 151.536 512.745L48.4102 616.424L48.333 616.347C47.9341 615.948 47.5609 615.523 47.162 615.06V451.904L107.051 451.891ZM49.7742 617.724L152.861 514.083C169.311 530.506 187.927 544.602 208.195 555.982V619.036H51.1125L49.7742 617.724ZM210.073 557.025C247.064 577.366 288.576 588.08 330.79 588.178V619.062H210.073V557.025ZM330.79 620.889V663.058H210.073V620.889H330.79ZM332.669 620.889H454.453V663.058H332.669V620.889ZM332.669 619.011V588.127C375.298 588.022 417.202 577.094 454.453 556.368V618.959L332.669 619.011ZM456.319 555.377C476.179 544.104 494.435 530.216 510.597 514.083L613.685 617.724L612.398 619.011H456.319V555.377ZM615.1 616.347L615.01 616.424L511.897 512.758C529.639 494.775 544.625 474.269 556.37 451.904H616.258V615.112L615.1 616.347ZM661.58 161.791V331.998H618.163V215.837H660.911V213.958H618.163V52.7325C646.032 82.2061 661.567 121.227 661.58 161.791ZM610.39 44.9472H456.319V2.81674H503.404C543.114 2.84607 581.34 17.9129 610.39 44.9858V44.9472ZM160.003 2.77814H208.208V44.9472H53.0685C82.1211 17.8902 120.341 2.83755 160.042 2.81674L160.003 2.77814ZM1.86589 504.085V161.791C1.87391 121.212 17.4138 82.1759 45.2961 52.6939V213.932H2.57364V215.837H45.2961V331.985H2.41922V333.864H45.2961V450.038H2.57364V451.917H45.2961V613.156C17.4199 583.68 1.88049 544.654 1.86589 504.085ZM53.0685 620.928H208.208V663.097H160.042C120.331 663.055 82.1092 647.975 53.0685 620.889V620.928ZM503.456 663.097H456.319V620.889H610.39C581.338 647.96 543.114 663.027 503.404 663.058L503.456 663.097Z" fill="url(#paint0_radial_762_71)"/>
<mask id="mask0_762_71" style="mask-type:alpha" maskUnits="userSpaceOnUse" x="-13" y="0" width="592" height="665">
<path d="M578.988 0H-12.7969V664.938H578.988V0Z" fill="url(#paint1_linear_762_71)"/>
</mask>
<g mask="url(#mask0_762_71)">
<path d="M82.8647 584.71C82.8647 579.582 82.8647 577.019 83.8783 575.067C84.7325 573.423 86.0733 572.082 87.7177 571.228C89.6691 570.214 92.2328 570.214 97.3601 570.214H147.148C152.276 570.214 154.839 570.214 156.791 571.228C158.435 572.082 159.776 573.423 160.63 575.067C161.644 577.019 161.644 579.582 161.644 584.71V634.499C161.644 639.626 161.644 642.19 160.63 644.141C159.776 645.785 158.435 647.126 156.791 647.98C154.839 648.994 152.276 648.994 147.148 648.994H97.3601C92.2328 648.994 89.6691 648.994 87.7177 647.98C86.0733 647.126 84.7325 645.785 83.8783 644.141C82.8647 642.19 82.8647 639.626 82.8647 634.499V584.71Z" fill="white" fill-opacity="0.1"/>
<path d="M147.148 569.745H97.3599H97.3376C94.7928 569.745 92.8541 569.745 91.3089 569.874C89.7536 570.003 88.5551 570.264 87.5014 570.812C85.7713 571.711 84.3607 573.121 83.462 574.851C82.9146 575.905 82.653 577.104 82.5238 578.659C82.3955 580.204 82.3955 582.143 82.3955 584.687V584.71V634.499V634.521C82.3955 637.066 82.3955 639.004 82.5238 640.55C82.653 642.105 82.9146 643.303 83.462 644.357C84.3607 646.087 85.7713 647.498 87.5014 648.396C88.5551 648.944 89.7536 649.205 91.3089 649.335C92.854 649.463 94.7926 649.463 97.3373 649.463H97.3599H147.148H147.171C149.716 649.463 151.654 649.463 153.199 649.335C154.755 649.205 155.953 648.944 157.007 648.396C158.737 647.498 160.148 646.087 161.046 644.357C161.594 643.303 161.855 642.105 161.985 640.55C162.113 639.004 162.113 637.066 162.113 634.521V634.499V584.71V584.687C162.113 582.143 162.113 580.204 161.985 578.659C161.855 577.104 161.594 575.905 161.046 574.851C160.148 573.121 158.737 571.711 157.007 570.812C155.953 570.264 154.755 570.003 153.199 569.874C151.654 569.745 149.716 569.745 147.171 569.745H147.148Z" stroke="white" stroke-opacity="0.2" stroke-width="0.937853"/>
<mask id="mask1_762_71" style="mask-type:luminance" maskUnits="userSpaceOnUse" x="95" y="582" width="55" height="55">
<path d="M149.451 582.407H95.0557V636.803H149.451V582.407Z" fill="white"/>
</mask>
<g mask="url(#mask1_762_71)">
<path d="M98.4551 582.407H146.051L141.722 631.279L122.201 636.802L102.789 631.277L98.4551 582.407ZM137.189 592.409L107.317 592.402L107.8 598.345L130.748 598.349L130.17 604.505H115.12L115.664 610.337H129.676L128.846 618.321L122.251 620.144L115.551 618.308L115.125 613.525H109.21L109.867 622.263L122.253 626.123L134.431 622.655L137.189 592.411V592.409Z" fill="white"/>
</g>
<path d="M359.186 66.2432H309.48C301.71 66.2432 295.412 72.5415 295.412 80.311V130.017C295.412 137.787 301.71 144.085 309.48 144.085H359.186C366.956 144.085 373.254 137.787 373.254 130.017V80.311C373.254 72.5415 366.956 66.2432 359.186 66.2432Z" fill="white" fill-opacity="0.1"/>
<path d="M359.185 65.7742H309.479C301.451 65.7742 294.942 72.2825 294.942 80.311V130.017C294.942 138.046 301.451 144.554 309.479 144.554H359.185C367.214 144.554 373.722 138.046 373.722 130.017V80.311C373.722 72.2826 367.214 65.7742 359.185 65.7742Z" stroke="white" stroke-opacity="0.2" stroke-width="0.937853"/>
<path d="M194.812 25.6665H146.044C137.756 25.6665 131.038 32.3847 131.038 40.6721V89.4405C131.038 97.7279 137.756 104.446 146.044 104.446H194.812C203.099 104.446 209.818 97.7279 209.818 89.4405V40.6721C209.818 32.3847 203.099 25.6665 194.812 25.6665Z" fill="white" fill-opacity="0.1"/>
<path d="M194.812 25.1976H146.044C137.498 25.1976 130.569 32.1258 130.569 40.6722V89.4405C130.569 97.9869 137.498 104.915 146.044 104.915H194.812C203.359 104.915 210.287 97.9869 210.287 89.4405V40.6722C210.287 32.1258 203.359 25.1976 194.812 25.1976Z" stroke="white" stroke-opacity="0.2" stroke-width="0.937853"/>
<path d="M480.475 333.679L429.834 333.099C422.065 333.01 415.695 339.236 415.606 347.005L415.026 397.646C414.937 405.415 421.163 411.785 428.932 411.874L479.572 412.454C487.341 412.543 493.711 406.317 493.8 398.548L494.38 347.907C494.469 340.138 488.244 333.768 480.475 333.679Z" fill="white" fill-opacity="0.1"/>
<path d="M480.48 333.211L429.839 332.631C421.811 332.539 415.229 338.972 415.137 347L414.557 397.641C414.465 405.668 420.898 412.251 428.926 412.343L479.567 412.923C487.595 413.015 494.177 406.581 494.269 398.554L494.849 347.913C494.941 339.885 488.508 333.302 480.48 333.211Z" stroke="white" stroke-opacity="0.2" stroke-width="0.937853"/>
<path d="M275.124 166H224.48C216.711 166 210.413 172.298 210.413 180.068V230.712C210.413 238.481 216.711 244.78 224.48 244.78H275.124C282.894 244.78 289.192 238.481 289.192 230.712V180.068C289.192 172.298 282.894 166 275.124 166Z" fill="white" fill-opacity="0.1"/>
<path d="M275.124 165.531H224.48C216.452 165.531 209.943 172.039 209.943 180.068V230.712C209.943 238.74 216.452 245.249 224.48 245.249H275.124C283.153 245.249 289.661 238.74 289.661 230.712V180.068C289.661 172.039 283.153 165.531 275.124 165.531Z" stroke="white" stroke-opacity="0.2" stroke-width="0.937853"/>
<path d="M425.332 216.795H374.688C366.918 216.795 360.62 223.093 360.62 230.863V281.507C360.62 289.276 366.918 295.575 374.688 295.575H425.332C433.101 295.575 439.4 289.276 439.4 281.507V230.863C439.4 223.093 433.101 216.795 425.332 216.795Z" fill="white" fill-opacity="0.1"/>
<path d="M425.332 216.326H374.688C366.66 216.326 360.151 222.834 360.151 230.863V281.507C360.151 289.535 366.66 296.044 374.688 296.044H425.332C433.361 296.044 439.869 289.535 439.869 281.507V230.863C439.869 222.834 433.361 216.326 425.332 216.326Z" stroke="white" stroke-opacity="0.2" stroke-width="0.937853"/>
<path d="M322.855 303.864H260.217C256.019 303.864 252.615 307.268 252.615 311.466V374.104C252.615 378.303 256.019 381.706 260.217 381.706H322.855C327.054 381.706 330.457 378.303 330.457 374.104V311.466C330.457 307.268 327.054 303.864 322.855 303.864Z" fill="white" fill-opacity="0.1"/>
<path d="M322.855 303.395H260.217C255.76 303.395 252.146 307.009 252.146 311.466V374.104C252.146 378.562 255.76 382.175 260.217 382.175H322.855C327.313 382.175 330.926 378.562 330.926 374.104V311.466C330.926 307.009 327.313 303.395 322.855 303.395Z" stroke="white" stroke-opacity="0.2" stroke-width="0.937853"/>
<path d="M347.339 440.791H296.695C288.926 440.791 282.627 447.089 282.627 454.859V505.503C282.627 513.272 288.926 519.571 296.695 519.571H347.339C355.109 519.571 361.407 513.272 361.407 505.503V454.859C361.407 447.089 355.109 440.791 347.339 440.791Z" fill="white" fill-opacity="0.1"/>
<path d="M347.339 440.322H296.695C288.667 440.322 282.158 446.83 282.158 454.859V505.503C282.158 513.531 288.667 520.04 296.695 520.04H347.339C355.367 520.04 361.876 513.531 361.876 505.503V454.859C361.876 446.83 355.367 440.322 347.339 440.322Z" stroke="white" stroke-opacity="0.2" stroke-width="0.937853"/>
<mask id="mask2_762_71" style="mask-type:luminance" maskUnits="userSpaceOnUse" x="294" y="452" width="56" height="56">
<path d="M349.368 452.982H294.818V507.531H349.368V452.982Z" fill="white"/>
</mask>
<g mask="url(#mask2_762_71)">
<path d="M322.093 453.657C307.025 453.657 294.818 465.874 294.818 480.932C294.818 492.989 302.633 503.208 313.462 506.814C314.831 507.071 315.326 506.227 315.326 505.498C315.326 504.85 315.31 503.137 315.3 500.863C307.709 502.506 306.11 497.196 306.11 497.196C304.867 494.052 303.074 493.209 303.074 493.209C300.606 491.523 303.27 491.559 303.27 491.559C306.004 491.744 307.443 494.363 307.443 494.363C309.876 498.536 313.825 497.329 315.389 496.627C315.627 494.869 316.338 493.66 317.112 492.987C311.057 492.303 304.69 489.96 304.69 479.508C304.69 476.523 305.747 474.093 307.494 472.183C307.193 471.5 306.269 468.721 307.735 464.964C307.735 464.964 310.017 464.236 315.235 467.761C317.419 467.156 319.737 466.855 322.054 466.839C324.372 466.855 326.689 467.158 328.872 467.761C334.06 464.236 336.341 464.964 336.341 464.964C337.805 468.721 336.881 471.498 336.615 472.183C338.345 474.093 339.402 476.525 339.402 479.508C339.402 489.983 333.027 492.293 326.965 492.96C327.913 493.776 328.801 495.455 328.801 498.004C328.801 501.652 328.767 504.591 328.767 505.479C328.767 506.188 329.244 507.04 330.649 506.766C341.559 503.198 349.364 492.97 349.364 480.93C349.364 465.873 337.157 453.655 322.09 453.655L322.093 453.657Z" fill="white"/>
</g>
<path d="M194.468 416.407H143.824C136.054 416.407 129.756 422.705 129.756 430.475V481.119C129.756 488.888 136.054 495.187 143.824 495.187H194.468C202.237 495.187 208.536 488.888 208.536 481.119V430.475C208.536 422.705 202.237 416.407 194.468 416.407Z" fill="white" fill-opacity="0.1"/>
<path d="M194.468 415.938H143.824C135.795 415.938 129.287 422.446 129.287 430.475V481.119C129.287 489.147 135.795 495.656 143.824 495.656H194.468C202.496 495.656 209.005 489.147 209.005 481.119V430.475C209.005 422.446 202.496 415.938 194.468 415.938Z" stroke="white" stroke-opacity="0.2" stroke-width="0.937853"/>
<path d="M169.147 254.158H118.503C110.734 254.158 104.436 260.456 104.436 268.226V318.87C104.436 326.639 110.734 332.938 118.503 332.938H169.147C176.917 332.938 183.215 326.639 183.215 318.87V268.226C183.215 260.456 176.917 254.158 169.147 254.158Z" fill="white" fill-opacity="0.1"/>
<path d="M169.147 253.689H118.503C110.475 253.689 103.966 260.197 103.966 268.226V318.87C103.966 326.898 110.475 333.407 118.503 333.407H169.147C177.176 333.407 183.684 326.898 183.684 318.87V268.226C183.684 260.197 177.176 253.689 169.147 253.689Z" stroke="white" stroke-opacity="0.2" stroke-width="0.937853"/>
<path d="M387.667 559.898H337.023C329.253 559.898 322.955 566.196 322.955 573.966V624.61C322.955 632.379 329.253 638.678 337.023 638.678H387.667C395.436 638.678 401.735 632.379 401.735 624.61V573.966C401.735 566.196 395.436 559.898 387.667 559.898Z" fill="white" fill-opacity="0.1"/>
<path d="M387.667 559.43H337.023C328.995 559.43 322.486 565.938 322.486 573.967V624.611C322.486 632.639 328.995 639.148 337.023 639.148H387.667C395.696 639.148 402.204 632.639 402.204 624.611V573.967C402.204 565.938 395.696 559.43 387.667 559.43Z" stroke="white" stroke-opacity="0.2" stroke-width="0.937853"/>
<path d="M336.09 568.339C335.523 568.339 335.1 568.801 335.151 569.366L339.933 623.014C339.984 623.579 340.472 624.166 341.019 624.318L361.315 629.953C361.862 630.105 362.756 630.105 363.303 629.953L383.661 624.309C384.208 624.157 384.697 623.571 384.747 623.006L389.538 569.366C389.589 568.801 389.165 568.339 388.598 568.339H336.09ZM379.352 580.643C379.307 581.147 379.229 582.022 379.178 582.587L379.052 583.994C379.002 584.559 378.929 585.367 378.891 585.79C378.853 586.212 378.817 586.558 378.811 586.558C378.804 586.558 378.335 586.558 377.767 586.558H363.376C362.808 586.558 362.339 586.558 362.333 586.558C362.327 586.558 361.858 586.558 361.29 586.558H353.711C353.144 586.558 352.721 587.02 352.771 587.585L353.213 592.527C353.264 593.092 353.769 593.554 354.337 593.554H361.291C361.858 593.554 362.327 593.554 362.333 593.554C362.34 593.554 362.809 593.554 363.376 593.554H375.329C375.896 593.554 376.774 593.554 377.28 593.554C377.785 593.554 378.161 593.967 378.116 594.471C378.07 594.975 377.991 595.85 377.941 596.415L376.519 612.347C376.468 612.912 376.404 613.634 376.376 613.951C376.348 614.268 375.878 614.652 375.331 614.803L363.338 618.129C362.792 618.28 362.337 618.406 362.329 618.407C362.32 618.409 361.866 618.287 361.319 618.135L349.314 614.804C348.767 614.652 348.279 614.065 348.228 613.5L347.455 604.826C347.405 604.261 347.828 603.799 348.396 603.799H349.491C350.059 603.799 350.987 603.799 351.554 603.799H353.188C353.755 603.799 354.261 604.261 354.311 604.826L354.614 608.222C354.665 608.787 355.154 609.37 355.702 609.518L361.318 611.035C361.865 611.183 362.315 611.304 362.318 611.304C362.32 611.304 362.77 611.182 363.318 611.034L368.944 609.514C369.491 609.366 369.981 608.783 370.032 608.218L370.642 601.415C370.692 600.85 370.27 600.388 369.702 600.388H363.376C362.809 600.388 362.34 600.388 362.333 600.388C362.327 600.388 361.858 600.388 361.291 600.388H348.09C347.522 600.388 347.017 599.925 346.967 599.36L345.47 582.587C345.419 582.022 345.341 581.147 345.296 580.643C345.251 580.139 345.679 579.726 346.246 579.726H361.291C361.858 579.726 362.327 579.726 362.333 579.726C362.34 579.726 362.809 579.726 363.376 579.726H378.402C378.97 579.726 379.397 580.139 379.352 580.643Z" fill="white"/>
</g>
<g filter="url(#filter0_d_762_71)">
<path d="M220 200.89H236.97V212.025H220V200.89ZM241.665 185.065H258.335V196.198H241.665V185.065ZM241.665 216.657H258.335V227.793H241.665V216.657ZM262.97 200.89H280V212.025H262.97V200.89ZM226.98 185.065C223.43 185.963 220.662 189.938 220 194.99V196.255H236.97V185.063L226.98 185.065ZM220 216.655V218.04C220.6 222.855 223.19 226.705 226.56 227.79H237.03V216.655H220ZM280 196.195V194.93C279.338 189.935 276.57 185.962 273.02 185H262.97V196.135H280V196.195ZM273.44 227.852C276.75 226.707 279.34 222.918 280 218.103V216.717H262.97V227.852H273.44Z" fill="white"/>
</g>
<g clip-path="url(#clip1_762_71)">
<path fill-rule="evenodd" clip-rule="evenodd" d="M178.232 91.374C176.786 91.374 175.616 90.1982 175.616 88.7446C175.616 87.2911 176.786 86.1182 178.232 86.1182C179.678 86.1182 180.848 87.2911 180.848 88.7446C180.848 90.1982 179.678 91.374 178.232 91.374ZM170.216 96C185.45 96 184.499 89.3599 184.499 89.3599L184.481 82.481H169.946V80.4155H190.253C190.253 80.4155 200 81.5284 200 66.0791C200 50.6298 191.495 51.1743 191.495 51.1743H186.416V58.3462C186.416 58.3462 186.689 66.895 178.046 66.895H163.628C163.628 66.895 155.528 66.7665 155.528 74.7671V87.9932C155.528 87.9932 154.298 96 170.216 96ZM161.771 40.626C163.217 40.626 164.384 41.8018 164.384 43.2554C164.384 44.7089 163.217 45.8818 161.771 45.8818C160.325 45.8818 159.155 44.7089 159.155 43.2554C159.155 41.8018 160.325 40.626 161.771 40.626ZM169.784 36C154.553 36 155.504 42.6401 155.504 42.6401L155.522 49.519H170.057V51.5845H149.747C149.747 51.5845 140 50.4716 140 65.9209C140 81.3702 148.508 80.8257 148.508 80.8257H153.584V73.6538C153.584 73.6538 153.311 65.105 161.957 65.105H176.372C176.372 65.105 184.472 65.2335 184.472 57.2329V44.0068C184.472 44.0068 185.702 36 169.784 36Z" fill="white"/>
</g>
<g opacity="0.6" filter="url(#filter1_d_762_71)">
<path d="M455 395.5L463.975 367.875H446.025L455 395.5Z" stroke="white" stroke-width="1.25" stroke-linecap="round" stroke-linejoin="round"/>
<path d="M433.45 367.825L430.713 376.212C430.592 376.587 430.592 376.991 430.713 377.365C430.834 377.74 431.07 378.067 431.388 378.3L455 395.5L433.45 367.825Z" stroke="white" stroke-width="1.25" stroke-linecap="round" stroke-linejoin="round"/>
<path d="M433.45 367.825H446.025L440.613 351.187C440.553 351.001 440.436 350.837 440.277 350.722C440.119 350.606 439.928 350.544 439.731 350.544C439.535 350.544 439.344 350.606 439.186 350.722C439.027 350.837 438.91 351.001 438.85 351.187L433.45 367.825Z" stroke="white" stroke-width="1.25" stroke-linecap="round" stroke-linejoin="round"/>
<path d="M476.562 367.825L479.288 376.212C479.408 376.587 479.408 376.991 479.287 377.365C479.166 377.74 478.93 378.067 478.612 378.3L455 395.5L476.562 367.875V367.825Z" stroke="white" stroke-width="1.25" stroke-linecap="round" stroke-linejoin="round"/>
<path d="M476.563 367.825H463.975L469.388 351.187C469.447 351.001 469.565 350.837 469.723 350.722C469.882 350.606 470.073 350.544 470.269 350.544C470.465 350.544 470.656 350.606 470.815 350.722C470.973 350.837 471.09 351.001 471.15 351.187L476.563 367.825Z" stroke="white" stroke-width="1.25" stroke-linecap="round" stroke-linejoin="round"/>
<path d="M455 395.45L463.975 367.825H476.562L455 395.45Z" stroke="white" stroke-width="1.25" stroke-linecap="round" stroke-linejoin="round"/>
<path d="M455 395.45L433.45 367.825H446.025L455 395.45Z" stroke="white" stroke-width="1.25" stroke-linecap="round" stroke-linejoin="round"/>
</g>
<path d="M138.425 318.057C148.552 318.706 164.103 317.699 164.471 312.906C164.471 312.906 163.764 314.721 156.101 316.165C151.869 316.928 146.997 317.363 142.023 317.363C137.949 317.363 133.944 317.071 130.027 316.506L130.475 316.559C130.475 316.557 131.771 317.629 138.425 318.057ZM149.36 262C149.36 262 155.204 267.844 143.819 276.831C134.69 284.041 141.738 288.153 143.817 292.849C138.489 288.038 134.579 283.81 137.201 279.871C141.052 274.086 151.719 271.283 149.36 262ZM155.722 303.201C166.272 297.719 161.394 292.448 157.991 293.161C157.524 293.249 157.119 293.361 156.727 293.502L156.783 293.485C157.006 293.172 157.314 292.93 157.672 292.793L157.685 292.789C164.422 290.421 169.602 299.774 155.51 303.479C155.596 303.402 155.667 303.31 155.718 303.207L155.722 303.201ZM137.39 292.952C137.39 292.952 127.169 295.381 133.773 296.26C135.551 296.406 137.621 296.489 139.709 296.489C142.379 296.489 145.017 296.352 147.618 296.088L147.292 296.114C151.524 295.758 155.769 294.996 155.769 294.996C154.773 295.431 153.927 295.891 153.127 296.414L153.196 296.373C142.818 299.103 122.769 297.833 128.542 295.041C131.086 293.723 134.097 292.951 137.289 292.951C137.324 292.951 137.36 292.951 137.396 292.951L137.39 292.952ZM160.91 310.043C160.91 310.043 162.502 311.354 159.161 312.364C152.806 314.29 132.712 314.869 127.134 312.441C125.127 311.568 128.891 310.356 130.072 310.103C130.617 309.964 131.246 309.884 131.891 309.884C131.934 309.884 131.975 309.884 132.018 309.886H132.012C129.779 308.312 117.588 312.972 125.819 314.307C148.267 317.946 166.732 312.666 160.91 310.043ZM146.351 288.888C146.939 289.594 147.297 290.515 147.297 291.516C147.297 292.864 146.649 294.062 145.647 294.814L145.636 294.822C145.636 294.822 152.523 291.265 149.36 286.814C146.405 282.663 144.14 280.6 156.406 273.486C156.406 273.484 137.156 278.292 146.351 288.888ZM135.009 299.333C135.009 299.333 132.599 301.116 136.278 301.499C137.889 301.701 139.751 301.816 141.641 301.816C145.064 301.816 148.4 301.437 151.606 300.719L151.302 300.775C151.947 301.379 152.718 301.859 153.569 302.17L153.616 302.185C140.309 306.078 125.484 302.489 135.007 299.331L135.009 299.333ZM136.357 305.489C136.357 305.489 134.208 306.739 137.887 307.161C139.235 307.362 140.789 307.476 142.372 307.476C144.911 307.476 147.38 307.182 149.748 306.623L149.531 306.666C150.406 307.201 151.424 307.711 152.487 308.133L152.626 308.181C141.616 312.899 127.713 307.906 136.359 305.489H136.357Z" fill="white"/>
<path d="M401.018 226L372 260.8L401.018 286L429.164 260.691L401.018 226ZM400.473 241.655C402.846 241.655 404.782 243.59 404.782 245.964C404.782 247.024 404.382 247.996 403.745 248.745L410.127 256.164C410.843 255.63 411.73 255.345 412.691 255.345C415.064 255.345 417 257.281 417 259.654C417 262.028 415.064 263.909 412.691 263.909C411.292 263.909 410.094 263.253 409.309 262.218L404.291 266.636C404.588 267.221 404.782 267.845 404.782 268.545C404.782 270.919 402.846 272.854 400.473 272.854C398.099 272.854 396.164 270.919 396.164 268.545C396.164 267.584 396.503 266.698 397.036 265.982L393.273 262.545C392.488 263.392 391.355 263.909 390.109 263.909C387.735 263.909 385.8 262.028 385.8 259.654C385.8 257.281 387.735 255.345 390.109 255.345C390.643 255.345 391.165 255.44 391.636 255.618L397.2 248.745C396.564 247.996 396.164 247.024 396.164 245.964C396.164 243.59 398.099 241.655 400.473 241.655ZM398.4 249.727L393 256.491C393.858 257.277 394.418 258.4 394.418 259.654C394.418 260.248 394.308 260.777 394.091 261.291L398.073 265C398.759 264.537 399.583 264.236 400.473 264.236C401.687 264.236 402.8 264.735 403.582 265.545L408.654 261.018C408.502 260.577 408.436 260.147 408.436 259.654C408.436 258.807 408.667 257.975 409.091 257.309L402.491 249.727C401.887 250.051 401.206 250.273 400.473 250.273C399.723 250.273 399.014 250.065 398.4 249.727Z" fill="white"/>
<g clip-path="url(#clip2_762_71)">
<path d="M311.5 96V82.875L326.5 79.575V95.775L311.5 96ZM354 73.5V95.375L329 95.75V79.025L354 73.5ZM311.5 98.5L326.5 98.725V115.75L311.5 112.875V98.5ZM354 99.125V121L329 116.225V98.725L354 99.125Z" fill="white"/>
</g>
<path d="M297.179 132H296.256L298.926 124.727H299.835L302.506 132H301.582L299.409 125.878H299.352L297.179 132ZM297.52 129.159H301.241V129.94H297.52V129.159ZM305.741 132.114C305.229 132.114 304.789 131.993 304.42 131.751C304.05 131.51 303.766 131.177 303.567 130.754C303.369 130.33 303.269 129.846 303.269 129.301C303.269 128.747 303.371 128.258 303.575 127.835C303.781 127.408 304.067 127.076 304.434 126.837C304.803 126.595 305.234 126.474 305.727 126.474C306.11 126.474 306.456 126.545 306.763 126.688C307.071 126.83 307.323 127.028 307.52 127.284C307.716 127.54 307.838 127.838 307.886 128.179H307.048C306.984 127.93 306.842 127.71 306.621 127.518C306.404 127.324 306.11 127.227 305.741 127.227C305.414 127.227 305.128 127.312 304.881 127.483C304.638 127.651 304.447 127.889 304.31 128.197C304.175 128.502 304.107 128.861 304.107 129.273C304.107 129.694 304.174 130.061 304.306 130.374C304.441 130.686 304.63 130.929 304.874 131.102C305.121 131.274 305.409 131.361 305.741 131.361C305.959 131.361 306.156 131.323 306.334 131.247C306.511 131.171 306.662 131.062 306.785 130.92C306.908 130.778 306.996 130.608 307.048 130.409H307.886C307.838 130.731 307.721 131.021 307.534 131.279C307.349 131.535 307.104 131.738 306.799 131.89C306.496 132.039 306.143 132.114 305.741 132.114ZM311.483 126.545V127.256H308.656V126.545H311.483ZM309.48 125.239H310.318V130.438C310.318 130.674 310.353 130.852 310.421 130.97C310.492 131.086 310.582 131.164 310.691 131.205C310.802 131.242 310.92 131.261 311.043 131.261C311.135 131.261 311.211 131.257 311.27 131.247C311.329 131.235 311.376 131.226 311.412 131.219L311.582 131.972C311.526 131.993 311.446 132.014 311.344 132.036C311.243 132.059 311.114 132.071 310.957 132.071C310.721 132.071 310.489 132.02 310.261 131.918C310.036 131.817 309.849 131.661 309.7 131.453C309.554 131.245 309.48 130.982 309.48 130.665V125.239ZM312.744 132V126.545H313.582V132H312.744ZM313.17 125.636C313.006 125.636 312.866 125.581 312.747 125.469C312.631 125.358 312.573 125.224 312.573 125.068C312.573 124.912 312.631 124.778 312.747 124.667C312.866 124.556 313.006 124.5 313.17 124.5C313.333 124.5 313.473 124.556 313.589 124.667C313.707 124.778 313.766 124.912 313.766 125.068C313.766 125.224 313.707 125.358 313.589 125.469C313.473 125.581 313.333 125.636 313.17 125.636ZM319.577 126.545L317.56 132H316.708L314.691 126.545H315.6L317.105 130.892H317.162L318.668 126.545H319.577ZM322.775 132.114C322.249 132.114 321.796 131.998 321.415 131.766C321.036 131.531 320.743 131.205 320.537 130.786C320.334 130.364 320.232 129.874 320.232 129.315C320.232 128.757 320.334 128.264 320.537 127.838C320.743 127.41 321.03 127.076 321.397 126.837C321.766 126.595 322.197 126.474 322.689 126.474C322.974 126.474 323.254 126.522 323.531 126.616C323.808 126.711 324.06 126.865 324.287 127.078C324.515 127.289 324.696 127.568 324.831 127.916C324.966 128.264 325.033 128.693 325.033 129.202V129.557H320.829V128.832H324.181C324.181 128.525 324.119 128.25 323.996 128.009C323.876 127.767 323.703 127.576 323.478 127.437C323.255 127.297 322.992 127.227 322.689 127.227C322.356 127.227 322.067 127.31 321.823 127.476C321.581 127.639 321.396 127.852 321.265 128.115C321.135 128.378 321.07 128.66 321.07 128.96V129.443C321.07 129.855 321.141 130.204 321.283 130.491C321.428 130.775 321.628 130.991 321.883 131.141C322.139 131.287 322.436 131.361 322.775 131.361C322.995 131.361 323.194 131.33 323.371 131.268C323.551 131.205 323.706 131.11 323.836 130.984C323.967 130.857 324.067 130.698 324.138 130.509L324.948 130.736C324.863 131.01 324.72 131.252 324.518 131.46C324.317 131.666 324.068 131.827 323.773 131.943C323.477 132.057 323.144 132.114 322.775 132.114ZM331.479 132H329.234V124.727H331.578C332.283 124.727 332.887 124.873 333.389 125.164C333.891 125.453 334.276 125.868 334.543 126.411C334.811 126.95 334.944 127.597 334.944 128.349C334.944 129.107 334.809 129.759 334.54 130.306C334.27 130.851 333.877 131.27 333.361 131.563C332.845 131.854 332.217 132 331.479 132ZM330.115 131.219H331.422C332.023 131.219 332.521 131.103 332.917 130.871C333.312 130.639 333.607 130.308 333.801 129.88C333.995 129.451 334.092 128.941 334.092 128.349C334.092 127.762 333.996 127.257 333.805 126.833C333.613 126.407 333.326 126.08 332.945 125.853C332.564 125.623 332.089 125.509 331.521 125.509H330.115V131.219ZM336.308 132V126.545H337.146V132H336.308ZM336.734 125.636C336.571 125.636 336.43 125.581 336.312 125.469C336.196 125.358 336.138 125.224 336.138 125.068C336.138 124.912 336.196 124.778 336.312 124.667C336.43 124.556 336.571 124.5 336.734 124.5C336.898 124.5 337.037 124.556 337.153 124.667C337.272 124.778 337.331 124.912 337.331 125.068C337.331 125.224 337.272 125.358 337.153 125.469C337.037 125.581 336.898 125.636 336.734 125.636ZM338.681 132V126.545H339.491V127.369H339.548C339.647 127.099 339.827 126.88 340.087 126.712C340.348 126.544 340.641 126.46 340.968 126.46C341.03 126.46 341.107 126.461 341.199 126.464C341.291 126.466 341.361 126.47 341.408 126.474V127.327C341.38 127.32 341.315 127.309 341.213 127.295C341.114 127.278 341.008 127.27 340.897 127.27C340.632 127.27 340.395 127.326 340.187 127.437C339.981 127.546 339.817 127.697 339.697 127.891C339.578 128.083 339.519 128.302 339.519 128.548V132H338.681ZM344.523 132.114C343.997 132.114 343.544 131.998 343.163 131.766C342.784 131.531 342.491 131.205 342.286 130.786C342.082 130.364 341.98 129.874 341.98 129.315C341.98 128.757 342.082 128.264 342.286 127.838C342.491 127.41 342.778 127.076 343.145 126.837C343.514 126.595 343.945 126.474 344.438 126.474C344.722 126.474 345.002 126.522 345.279 126.616C345.556 126.711 345.808 126.865 346.036 127.078C346.263 127.289 346.444 127.568 346.579 127.916C346.714 128.264 346.781 128.693 346.781 129.202V129.557H342.577V128.832H345.929C345.929 128.525 345.867 128.25 345.744 128.009C345.624 127.767 345.451 127.576 345.226 127.437C345.003 127.297 344.741 127.227 344.438 127.227C344.104 127.227 343.815 127.31 343.571 127.476C343.33 127.639 343.144 127.852 343.013 128.115C342.883 128.378 342.818 128.66 342.818 128.96V129.443C342.818 129.855 342.889 130.204 343.031 130.491C343.176 130.775 343.376 130.991 343.631 131.141C343.887 131.287 344.184 131.361 344.523 131.361C344.743 131.361 344.942 131.33 345.119 131.268C345.299 131.205 345.454 131.11 345.585 130.984C345.715 130.857 345.815 130.698 345.886 130.509L346.696 130.736C346.611 131.01 346.468 131.252 346.266 131.46C346.065 131.666 345.817 131.827 345.521 131.943C345.225 132.057 344.892 132.114 344.523 132.114ZM350.272 132.114C349.761 132.114 349.32 131.993 348.951 131.751C348.582 131.51 348.298 131.177 348.099 130.754C347.9 130.33 347.8 129.846 347.8 129.301C347.8 128.747 347.902 128.258 348.106 127.835C348.312 127.408 348.598 127.076 348.965 126.837C349.335 126.595 349.765 126.474 350.258 126.474C350.641 126.474 350.987 126.545 351.295 126.688C351.603 126.83 351.855 127.028 352.051 127.284C352.248 127.54 352.37 127.838 352.417 128.179H351.579C351.515 127.93 351.373 127.71 351.153 127.518C350.935 127.324 350.641 127.227 350.272 127.227C349.945 127.227 349.659 127.312 349.413 127.483C349.169 127.651 348.978 127.889 348.841 128.197C348.706 128.502 348.638 128.861 348.638 129.273C348.638 129.694 348.705 130.061 348.837 130.374C348.972 130.686 349.162 130.929 349.406 131.102C349.652 131.274 349.941 131.361 350.272 131.361C350.49 131.361 350.688 131.323 350.865 131.247C351.043 131.171 351.193 131.062 351.316 130.92C351.439 130.778 351.527 130.608 351.579 130.409H352.417C352.37 130.731 352.252 131.021 352.065 131.279C351.881 131.535 351.636 131.738 351.33 131.89C351.027 132.039 350.674 132.114 350.272 132.114ZM356.014 126.545V127.256H353.188V126.545H356.014ZM354.011 125.239H354.849V130.438C354.849 130.674 354.884 130.852 354.952 130.97C355.023 131.086 355.113 131.164 355.222 131.205C355.334 131.242 355.451 131.261 355.574 131.261C355.666 131.261 355.742 131.257 355.801 131.247C355.86 131.235 355.908 131.226 355.943 131.219L356.114 131.972C356.057 131.993 355.978 132.014 355.876 132.036C355.774 132.059 355.645 132.071 355.489 132.071C355.252 132.071 355.02 132.02 354.793 131.918C354.568 131.817 354.381 131.661 354.232 131.453C354.085 131.245 354.011 130.982 354.011 130.665V125.239ZM359.432 132.114C358.94 132.114 358.508 131.996 358.136 131.762C357.767 131.528 357.478 131.2 357.27 130.778C357.064 130.357 356.961 129.865 356.961 129.301C356.961 128.733 357.064 128.237 357.27 127.813C357.478 127.389 357.767 127.06 358.136 126.826C358.508 126.592 358.94 126.474 359.432 126.474C359.925 126.474 360.355 126.592 360.725 126.826C361.096 127.06 361.385 127.389 361.591 127.813C361.8 128.237 361.904 128.733 361.904 129.301C361.904 129.865 361.8 130.357 361.591 130.778C361.385 131.2 361.096 131.528 360.725 131.762C360.355 131.996 359.925 132.114 359.432 132.114ZM359.432 131.361C359.806 131.361 360.114 131.265 360.355 131.073C360.597 130.881 360.776 130.629 360.892 130.317C361.008 130.004 361.066 129.666 361.066 129.301C361.066 128.937 361.008 128.597 360.892 128.282C360.776 127.967 360.597 127.713 360.355 127.518C360.114 127.324 359.806 127.227 359.432 127.227C359.058 127.227 358.75 127.324 358.509 127.518C358.267 127.713 358.089 127.967 357.973 128.282C357.857 128.597 357.799 128.937 357.799 129.301C357.799 129.666 357.857 130.004 357.973 130.317C358.089 130.629 358.267 130.881 358.509 131.073C358.75 131.265 359.058 131.361 359.432 131.361ZM363.183 132V126.545H363.993V127.369H364.05C364.149 127.099 364.329 126.88 364.589 126.712C364.85 126.544 365.143 126.46 365.47 126.46C365.532 126.46 365.608 126.461 365.701 126.464C365.793 126.466 365.863 126.47 365.91 126.474V127.327C365.882 127.32 365.817 127.309 365.715 127.295C365.616 127.278 365.51 127.27 365.399 127.27C365.134 127.27 364.897 127.326 364.689 127.437C364.483 127.546 364.319 127.697 364.199 127.891C364.08 128.083 364.021 128.302 364.021 128.548V132H363.183ZM367.61 134.045C367.468 134.045 367.341 134.034 367.23 134.01C367.118 133.989 367.041 133.967 366.999 133.946L367.212 133.207C367.415 133.259 367.595 133.278 367.752 133.264C367.908 133.25 368.046 133.18 368.167 133.055C368.29 132.932 368.403 132.732 368.504 132.455L368.661 132.028L366.644 126.545H367.553L369.058 130.892H369.115L370.621 126.545H371.53L369.215 132.795C369.11 133.077 368.981 133.31 368.828 133.495C368.674 133.682 368.495 133.821 368.291 133.911C368.09 134 367.863 134.045 367.61 134.045Z" fill="white"/>
<g opacity="0.55" clip-path="url(#clip3_762_71)">
<path d="M312.264 337.913C313.319 337.386 314.421 336.749 315.5 336V342C315.5 348.213 305.426 353.25 293 353.25C280.574 353.25 270.5 348.213 270.5 342V336C271.579 336.749 272.681 337.386 273.736 337.913C279.054 340.572 285.875 342 293 342C300.125 342 306.946 340.572 312.264 337.913Z" fill="white"/>
<path d="M270.5 354.75V360.75C270.5 366.963 280.574 372 293 372C305.426 372 315.5 366.963 315.5 360.75V354.75C314.421 355.499 313.319 356.136 312.264 356.663C306.946 359.322 300.125 360.75 293 360.75C285.875 360.75 279.054 359.322 273.736 356.663C272.681 356.136 271.579 355.499 270.5 354.75Z" fill="white"/>
<path d="M293 312C305.426 312 315.5 317.037 315.5 323.25C315.5 329.463 305.426 334.5 293 334.5C280.574 334.5 270.5 329.463 270.5 323.25C270.5 317.037 280.574 312 293 312Z" fill="white"/>
</g>
<g opacity="0.4">
<path fill-rule="evenodd" clip-rule="evenodd" d="M169.907 426C180.098 432.445 189.277 435.507 197.178 434.784C198.564 462.67 188.267 479.14 170.015 486C152.388 479.574 141.968 463.803 142.739 434.354C152.012 434.838 161.104 432.841 169.907 426ZM152.534 447.88H156.006L158.423 455.609L160.801 447.88H164.17L160.186 458.617H156.592L152.534 447.88ZM165 447.88H170.513C171.714 447.88 172.612 448.163 173.208 448.739C173.804 449.311 174.106 450.126 174.106 451.176C174.106 452.26 173.779 453.109 173.13 453.72C172.476 454.33 171.484 454.633 170.146 454.633H168.33V458.617H165V447.88ZM168.33 452.455H169.141C169.78 452.455 170.23 452.343 170.488 452.123C170.747 451.898 170.874 451.62 170.874 451.269C170.874 450.932 170.762 450.644 170.537 450.409C170.313 450.175 169.893 450.058 169.272 450.058H168.325V452.455H168.33ZM175.615 447.88H178.716L182.759 453.822V447.88H185.889V458.617H182.759L178.735 452.719V458.617H175.615V447.88ZM169.907 429.437C178.926 435.146 187.061 437.846 194.048 437.216C195.273 461.898 186.147 476.479 169.995 482.562C154.404 476.874 145.171 462.924 145.855 436.854C154.063 437.284 162.109 435.507 169.907 429.457V429.437Z" fill="white"/>
</g>
</g>
<defs>
<filter id="filter0_d_762_71" x="216" y="185" width="68" height="50.8525" filterUnits="userSpaceOnUse" color-interpolation-filters="sRGB">
<feFlood flood-opacity="0" result="BackgroundImageFix"/>
<feColorMatrix in="SourceAlpha" type="matrix" values="0 0 0 0 0 0 0 0 0 0 0 0 0 0 0 0 0 0 127 0" result="hardAlpha"/>
<feOffset dy="4"/>
<feGaussianBlur stdDeviation="2"/>
<feComposite in2="hardAlpha" operator="out"/>
<feColorMatrix type="matrix" values="0 0 0 0 0 0 0 0 0 0 0 0 0 0 0 0 0 0 0.25 0"/>
<feBlend mode="normal" in2="BackgroundImageFix" result="effect1_dropShadow_762_71"/>
<feBlend mode="normal" in="SourceGraphic" in2="effect1_dropShadow_762_71" result="shape"/>
</filter>
<filter id="filter1_d_762_71" x="421" y="343" width="68" height="68" filterUnits="userSpaceOnUse" color-interpolation-filters="sRGB">
<feFlood flood-opacity="0" result="BackgroundImageFix"/>
<feColorMatrix in="SourceAlpha" type="matrix" values="0 0 0 0 0 0 0 0 0 0 0 0 0 0 0 0 0 0 127 0" result="hardAlpha"/>
<feOffset dy="4"/>
<feGaussianBlur stdDeviation="2"/>
<feComposite in2="hardAlpha" operator="out"/>
<feColorMatrix type="matrix" values="0 0 0 0 0 0 0 0 0 0 0 0 0 0 0 0 0 0 0.25 0"/>
<feBlend mode="normal" in2="BackgroundImageFix" result="effect1_dropShadow_762_71"/>
<feBlend mode="normal" in="SourceGraphic" in2="effect1_dropShadow_762_71" result="shape"/>
</filter>
<radialGradient id="paint0_radial_762_71" cx="0" cy="0" r="1" gradientUnits="userSpaceOnUse" gradientTransform="translate(332 332.938) rotate(90) scale(349.759)">
<stop stop-color="white"/>
<stop offset="1" stop-color="white" stop-opacity="0"/>
</radialGradient>
<linearGradient id="paint1_linear_762_71" x1="141.949" y1="-81.5932" x2="363.282" y2="699.638" gradientUnits="userSpaceOnUse">
<stop offset="0.416946"/>
<stop offset="0.880782" stop-opacity="0.02"/>
</linearGradient>
<clipPath id="clip0_762_71">
<rect width="664" height="665" fill="white"/>
</clipPath>
<clipPath id="clip1_762_71">
<rect width="60" height="60" fill="white" transform="translate(140 36)"/>
</clipPath>
<clipPath id="clip2_762_71">
<rect width="60" height="60" fill="white" transform="translate(304 66)"/>
</clipPath>
<clipPath id="clip3_762_71">
<rect width="60" height="60" fill="white" transform="translate(263 312)"/>
</clipPath>
</defs>
</svg>
